<svg width="24" height="24" viewBox="0 0 24 24" fill="none" xmlns="http://www.w3.org/2000/svg">
<path d="M17 5.10002C17.83 5.10002 18.5 4.43002 18.5 3.60002C18.5 2.60002 17 0.900024 17 0.900024C17 0.900024 15.5 2.60002 15.5 3.60002C15.5 4.43002 16.17 5.10002 17 5.10002ZM12 5.10002C12.83 5.10002 13.5 4.43002 13.5 3.60002C13.5 2.60002 12 0.900024 12 0.900024C12 0.900024 10.5 2.60002 10.5 3.60002C10.5 4.43002 11.17 5.10002 12 5.10002ZM7 5.10002C7.83 5.10002 8.5 4.43002 8.5 3.60002C8.5 2.60002 7 0.900024 7 0.900024C7 0.900024 5.5 2.60002 5.5 3.60002C5.5 4.43002 6.17 5.10002 7 5.10002ZM18.92 8.11002C18.72 7.52002 18.16 7.10002 17.5 7.10002H6.5C5.84 7.10002 5.29 7.52002 5.08 8.11002L3 14.1V22.1C3 22.65 3.45 23.1 4 23.1H5C5.55 23.1 6 22.65 6 22.1V21.1H18V22.1C18 22.65 18.45 23.1 19 23.1H20C20.55 23.1 21 22.65 21 22.1V14.1L18.92 8.11002ZM6.85 9.10002H17.14L18.18 12.1H5.81L6.85 9.10002ZM19 19.1H5V14.44L5.12 14.1H18.89L19 14.44V19.1Z" fill="#6B7280"/>
<path d="M7.5 18.1C8.32843 18.1 9 17.4285 9 16.6C9 15.7716 8.32843 15.1 7.5 15.1C6.67157 15.1 6 15.7716 6 16.6C6 17.4285 6.67157 18.1 7.5 18.1Z" fill="#6B7280"/>
<path d="M16.5 18.1C17.3284 18.1 18 17.4285 18 16.6C18 15.7716 17.3284 15.1 16.5 15.1C15.6716 15.1 15 15.7716 15 16.6C15 17.4285 15.6716 18.1 16.5 18.1Z" fill="#6B7280"/>
</svg>
