<svg viewBox="462 0 576 144.98947368421054" xmlns:xlink="http://www.w3.org/1999/xlink" version="1.1" xmlns="http://www.w3.org/2000/svg" style="max-height: 500px" width="576" height="144.98947368421054"><svg y="0" x="0" viewBox="0 0 556 142" data-id="lg_7mSjmtBWQ7aFLM4Xlk" data-version="2" height="142" width="1500" xml:space="preserve"><rect fill="transparent" height="100%" width="100%"/><path d="M35.354 103.673q-8.14 0-14.9-4.12-6.75-4.13-10.77-11.08t-4.02-15.39q0-8.44 4.02-15.39 4.02-6.95 10.77-11.07 6.76-4.13 14.9-4.13 5.86 0 11.02 2.09 5.17 2.09 9.14 5.76v-42.8h10.72v95.33h-9.93v-7.84q-3.97 3.97-9.38 6.3-5.41 2.34-11.57 2.34m1.39-9.74q5.66 0 10.28-2.83 4.61-2.83 7.35-7.54 2.73-4.72 2.73-10.48 0-5.76-2.73-10.48-2.74-4.71-7.35-7.54-4.62-2.83-10.28-2.83-5.66 0-10.28 2.83-4.62 2.83-7.35 7.54-2.73 4.72-2.73 10.48 0 5.76 2.73 10.48 2.73 4.71 7.35 7.54 4.62 2.83 10.28 2.83" fill="#c5283d"/><rect transform="translate(36.45 56.1)" ry="0" rx="0" fill="none" y="-48.06" x="-30.29" height="96.13" width="60.57"/><path d="M85.304 102.873v-59.58h10.72v59.58Zm5.36-70.31q-2.98 0-5.06-2.08-2.09-2.09-2.09-5.07 0-3.07 2.09-5.11 2.08-2.04 5.06-2.04 3.08 0 5.12 2.04 2.03 2.04 2.03 5.11 0 2.98-2.03 5.07-2.04 2.08-5.12 2.08" fill="#c5283d"/><rect transform="translate(91.16 61.07)" ry="0" rx="0" fill="none" y="-42.3" x="-7.15" height="84.61" width="14.3"/><path d="M139.224 133.863q-6.85 0-12.46-1.99-5.61-1.99-9.98-5.46l2.98-12.12q2.98 4.27 7.94 6.95 4.97 2.68 11.42 2.68 10.03 0 16.24-6.05 6.21-6.06 6.21-15.59v-7.25q-3.98 3.97-9.39 6.3-5.41 2.34-11.57 2.34-8.14 0-14.89-4.12-6.76-4.13-10.78-11.08t-4.02-15.39q0-8.44 4.02-15.39 4.02-6.95 10.78-11.07 6.75-4.13 14.89-4.13 6.16 0 11.57 2.29 5.41 2.28 9.39 6.35v-7.84h9.93v59.58q0 9.73-4.52 16.69-4.52 6.95-11.87 10.62-7.35 3.68-15.89 3.68m2.78-39.93q5.66 0 10.28-2.83 4.62-2.83 7.35-7.54 2.73-4.72 2.73-10.48 0-5.76-2.73-10.48-2.73-4.71-7.35-7.54-4.62-2.83-10.28-2.83-5.66 0-10.28 2.83-4.61 2.83-7.34 7.54-2.73 4.72-2.73 10.48 0 5.76 2.73 10.48 2.73 4.71 7.34 7.54 4.62 2.83 10.28 2.83" fill="#c5283d"/><rect transform="translate(141.71 88.68)" ry="0" rx="0" fill="none" y="-45.69" x="-30.29" height="91.37" width="60.58"/><path d="M190.564 102.873v-59.58h10.73v59.58Zm5.37-70.31q-2.98 0-5.07-2.08-2.08-2.09-2.08-5.07 0-3.07 2.08-5.11 2.09-2.04 5.07-2.04 3.07 0 5.11 2.04 2.04 2.04 2.04 5.11 0 2.98-2.04 5.07-2.04 2.08-5.11 2.08" fill="#c5283d"/><rect transform="translate(196.43 61.07)" ry="0" rx="0" fill="none" y="-42.3" x="-7.15" height="84.61" width="14.3"/><path d="m206.993 118.673 43.04-117.12h11.84l41.12 117.12h-14.08l-10.08-32.64h-46.72l-10.56 32.64Zm29.44-44.48h38.24l-18.88-54.56Z"/><rect transform="translate(255.5 60.61)" ry="0" rx="0" fill="none" y="-58.56" x="-48" height="117.12" width="96"/><path d="M314.993 92.913v-59.2h11.84v59.2q0 7.52 4 11.44t10.4 3.92q6.08 0 11.52-1.28 5.44-1.28 8.72-2.64 3.28-1.36 11.12-5.2v-65.44h11.84v84.96h-8.32l-3.52-9.92q-.48.16-3.52 2t-3.76 2.16q-.72.32-3.44 1.84-2.72 1.52-3.84 1.84-1.12.32-3.68 1.28t-4.24 1.28q-1.68.32-4.08.64-2.4.32-4.8.32-12.16 0-19.2-8-7.04-8-7.04-19.2"/><rect transform="translate(350.21 77.41)" ry="0" rx="0" fill="none" y="-43.2" x="-34.72" height="86.4" width="69.44"/><path d="M397.233 45.393v-8.96l15.84-2.88 2.88-23.68h8.96v23.68h24.8v11.84h-24.8v42.88q0 9.76 2.24 13.52t6.88 4.88q13.12 3.36 14.24 3.36v8.48h-14.08q-21.12 0-21.12-30.24v-42.88Z"/><rect transform="translate(423.97 64.7)" ry="0" rx="0" fill="none" y="-54.32" x="-26.24" height="108.64" width="52.48"/><path d="m202.298 137.097 335.344.85" stroke-width="5" stroke-dasharray="10 10" stroke="#c5283d"/><path d="M548.88 77.032a43.514 42.627 0 0 0-4.208-18.332 1.456 1.427 0 0 0-.495-.955A43.689 42.798 0 0 0 530.05 41.88a1.456 1.427 0 0 0-.947-.642 43.063 42.185 0 0 0-20.33-6.848 1.456 1.427 0 0 0-1.121-.085c-.816-.072-1.631-.072-2.461-.072a43.325 42.441 0 0 0-18.714 4.137 1.456 1.427 0 0 0-.976.471 43.689 42.798 0 0 0-16.194 13.838 1.456 1.427 0 0 0-.655.927 43.063 42.185 0 0 0-6.99 19.916 1.456 1.427 0 0 0-.088 1.098v2.411a43.514 42.627 0 0 0 4.136 18.332 1.456 1.427 0 0 0 .495.956 43.85 42.955 0 0 0 14.127 15.878 1.456 1.427 0 0 0 .932.613 43.136 42.256 0 0 0 20.388 6.848 1.456 1.427 0 0 0 .626.171c.15.02.301.02.451 0h2.462a43.325 42.441 0 0 0 18.713-4.137 1.34 1.312 0 0 0 .976-.47 43.689 42.798 0 0 0 16.194-13.839 1.456 1.427 0 0 0 .655-.927 43.063 42.185 0 0 0 6.976-19.887 1.456 1.427 0 0 0 .087-1.098c.088-.828.088-1.627.088-2.44m-6.888-17.119-6.043-2.525a1.456 1.427 0 0 1-.758-1.869 1.456 1.427 0 0 1 1.908-.756l2.592 1.084a34.951 34.238 0 0 1 2.301 4.066m-12.043 17.12c0 13.394-11.084 24.251-24.757 24.251s-24.758-10.857-24.758-24.252 11.084-24.252 24.758-24.252 24.757 10.858 24.757 24.252m-1.675-32.898-6.495.77h-.175a1.46 1.43 0 1 1-.175-2.853l2.826-.328a36.524 35.78 0 0 1 4.019 2.41m-23.082-7.048c1.077 0 2.155 0 3.218.129l-5.257 3.866a1.456 1.427 0 0 1-1.748-2.283l2.33-1.712zm-17.476 3.895-2.578 5.92a1.456 1.427 0 0 1-1.34.856 1.282 1.255 0 0 1-.567-.114 1.456 1.427 0 0 1-.772-1.869l1.107-2.539a34.951 34.238 0 0 1 4.15-2.254m-16.02 13.439.787 6.362a1.456 1.427 0 0 1-1.281 1.598h-.263a1.456 1.427 0 0 1-1.456-1.255l-.335-2.768a36.524 35.78 0 0 1 2.461-3.937Zm-7.28 22.611c0-1.055 0-2.111.13-3.153l3.947 5.15a1.456 1.427 0 0 1-2.33 1.712l-1.748-2.282zm3.975 17.12 6.044 2.524a1.456 1.427 0 0 1-.583 2.74 1.325 1.298 0 0 1-.568-.115l-2.592-1.084a34.951 34.238 0 0 1-2.301-4.066m13.718 15.692 6.495-.77a1.467 1.437 0 1 1 .35 2.853l-2.825.328a36.524 35.78 0 0 1-4.02-2.325Zm23.083 7.133c-1.078 0-2.156 0-3.219-.128l5.257-3.866a1.456 1.427 0 1 1 1.748 2.282l-2.33 1.712zm17.475-3.895 2.578-5.92a1.456 1.427 0 0 1 1.908-.742 1.456 1.427 0 0 1 .771 1.869l-1.106 2.54a34.951 34.238 0 0 1-4.15 2.253m16.02-13.438-.787-6.363a1.467 1.437 0 1 1 2.913-.342l.335 2.767a36.524 35.78 0 0 1-2.374 3.938Zm3.203-24.609a1.456 1.427 0 1 1 2.33-1.712l1.748 2.283v1.426c0 1.056 0 2.112-.131 3.153Z" fill="#c5283d"/><path d="m516.565 58.772-.873-.528a21.553 21.114 0 0 0-10.5-2.61q-.976 0-1.879.085l-1.034.142A21.845 21.399 0 0 0 484.614 69.9c-.102.286-.204.557-.291.842a21.845 21.399 0 0 0-.772 3.438l-.204.999a15.888 15.564 0 0 0 0 1.854 21.845 21.399 0 0 0 4.646 13.182l.699.799a21.845 21.399 0 0 0 25.718 5.421l.99-.457a21.932 21.485 0 0 0 10.413-11.869l.291-.941a21.845 21.399 0 0 0-9.539-24.395m-8.46 18.26a2.913 2.853 0 1 1-5.826 0 2.913 2.853 0 0 1 5.825 0m-21.146-4.993c.116-.414.247-.827.393-1.227s.364-.941.568-1.426c.204-.485.379-.77.582-1.142s.32-.57.496-.856c.396-.613.828-1.205 1.296-1.769l.568-.67c.305-.342.611-.685.946-.999a15.435 15.435 0 0 1 1.879-1.612l.437-.314c.2-.155.407-.3.626-.428a7.194 7.047 0 0 1 .612-.385c.665-.4 1.355-.756 2.068-1.07l.553-.228a18.175 17.804 0 0 1 3.204-.97.728.713 0 0 1 .19 0h.188A11.65 11.413 0 0 1 486.61 73.48c.102-.485.219-.97.35-1.44m24.29 22.555-.96.3a16.383 16.05 0 0 1-1.675.37l-.655.114c-.574.086-1.154.143-1.733.171l-1.034.029a18.655 18.275 0 0 1-5.185-.713l-.64-.214a8.14 7.975 0 0 1-1.05-.371c-.32-.114-.625-.243-.931-.385a15.845 15.521 0 0 1-1.777-.913 8.062 8.062 0 0 1-.655-.4 17.3 16.948 0 0 1-1.952-1.426c-.451-.386-.888-.77-1.296-1.185a11.65 11.413 0 0 1 20.49 4.28c-.35.143-.655.257-.946.343m9.962-27.548c.175.253.335.515.48.785a.947.927 0 0 1 .132.228c.13.228.247.456.364.685a13.107 12.84 0 0 1 .655 1.426 7.281 7.133 0 0 1 .335.928c.097.235.175.479.233.727.073.214.131.428.19.642a2.36 2.311 0 0 1 0 .271c.078.291.14.586.189.885q.101.556.174 1.112c.105.762.159 1.528.16 2.297v1.77a4.369 4.28 0 0 1-.101.741c0 .314-.088.628-.146.942-.058.313-.117.542-.175.813A11.65 11.413 0 0 1 512.475 69.9a11.534 11.299 0 0 1 3.48-8.117l.408.285.714.528c.291.228.568.47.845.728.276.256.757.699 1.106 1.07a8.8 8.8 0 0 1 .612.67c.233.257.437.5.64.77l.263.343c.16.214.32.442.466.67Z" fill="#c5283d"/></svg></svg>