<?xml version="1.0" encoding="iso-8859-1"?>
<!-- Uploaded to: SVG Repo, www.svgrepo.com, Generator: SVG Repo Mixer Tools -->
<svg height="800px" width="800px" version="1.1" id="Capa_1" xmlns="http://www.w3.org/2000/svg" xmlns:xlink="http://www.w3.org/1999/xlink" 
	 viewBox="0 0 501.948 501.948" xml:space="preserve">
<g>
	<g>
		<g>
			<path style="fill:#E9B872;" d="M121.741,179.769L92.75,208.717l23.987,24.03l29.013-29.013
				c9.772,6.665,20.967,11.303,33.025,13.633v41.028h33.974v-41.028c12.058-2.308,23.253-6.967,33.068-13.611l28.97,28.991
				l23.965-24.03l-28.926-28.926c6.665-9.836,11.303-21.075,13.633-33.111h41.028v-33.952h-41.006
				c-2.286-12.058-6.924-23.275-13.611-33.111l28.926-28.905l-24.008-24.051l-28.97,28.948
				c-9.793-6.644-21.053-11.282-33.068-13.611V0.947h-33.974v41.028c-12.058,2.351-23.296,7.032-33.068,13.654l-28.97-28.97
				L92.75,50.711l28.991,28.948c-6.665,9.815-11.346,21.01-13.633,33.068H66.973v33.952h41.114
				C110.395,158.737,115.076,169.932,121.741,179.769z M195.794,96.096c18.486,0,33.564,14.992,33.564,33.564
				c0,18.594-15.035,33.607-33.564,33.607c-18.486,0-33.586-15.013-33.586-33.607C162.208,111.131,177.264,96.096,195.794,96.096z"
				/>
			<path style="fill:#E9B872;" d="M500.74,35.266c-3.408-9.189-13.719-13.827-22.908-10.376l-93.488,35.311
				c-5.134,1.963-9.081,6.148-10.721,11.389l-68.121,218.426c-46.528,0-202.571,0-222.977,0
				c-6.428-22.196-47.542-165.362-47.542-165.362c-2.783-9.426-12.64-14.884-22.067-12.187
				c-9.491,2.718-14.949,12.576-12.209,22.067L51.96,312.753c2.2,7.636,9.168,12.942,17.084,12.942h225.803
				c-4.875,16.804-11.152,38.525-14.172,49.009c-23.706,0-213.853,0-213.853,0c-9.815,0-17.774,7.96-17.774,17.839
				c0,9.879,7.96,17.796,17.774,17.796h227.227c7.96,0,14.927-5.22,17.192-12.813l24.504-84.687c0.022-0.065,0-0.151,0.022-0.216
				c1.769-5.695,64.54-206.929,69.307-222.157c13.568-5.112,85.356-32.205,85.356-32.205c7.097-2.718,11.519-9.513,11.519-16.674
				C501.926,39.494,501.516,37.358,500.74,35.266z"/>
			<circle style="fill:#E9B872;" cx="290.985" cy="461.634" r="39.367"/>
			<circle style="fill:#E9B872;" cx="76.291" cy="461.634" r="39.367"/>
		</g>
	</g>
	<g>
	</g>
	<g>
	</g>
	<g>
	</g>
	<g>
	</g>
	<g>
	</g>
	<g>
	</g>
	<g>
	</g>
	<g>
	</g>
	<g>
	</g>
	<g>
	</g>
	<g>
	</g>
	<g>
	</g>
	<g>
	</g>
	<g>
	</g>
	<g>
	</g>
</g>
</svg>